<svg width="34" height="35" viewBox="0 0 34 35" fill="none" xmlns="http://www.w3.org/2000/svg">
<rect x="0.5" y="1" width="33" height="33" rx="6.5" stroke="url(#paint0_linear_640_78)"/>
<g clip-path="url(#clip0_640_78)">
<path d="M16.5 28.1562C22.1109 28.1562 26.6719 23.3781 26.6719 17.5C26.6719 11.6219 22.1109 6.84375 16.5 6.84375C10.8891 6.84375 6.32812 11.6219 6.32812 17.5C6.32812 23.3781 10.8891 28.1562 16.5 28.1562ZM8.625 21.7453L12.7594 21.7109C13.2188 23.4469 13.9898 25.1313 15.0398 26.6437C12.2344 26.1625 9.88828 24.2891 8.625 21.7453ZM13.8094 14.5781H18.9609C19.3383 16.4688 19.3383 18.4109 18.9937 20.3016L13.8094 20.3359C13.432 18.4281 13.432 16.4688 13.8094 14.5781ZM16.3852 26.2484C15.3516 24.8563 14.5969 23.3266 14.1375 21.7109L18.6492 21.6766C18.1734 23.2922 17.4187 24.8391 16.3852 26.2484ZM17.6977 26.6953C18.7805 25.1484 19.5516 23.4469 20.0109 21.6594L24.4242 21.625C23.1445 24.3234 20.6508 26.2656 17.6977 26.6953ZM25.3594 17.5C25.3594 18.4625 25.2117 19.3906 24.9656 20.25L20.3227 20.2844C20.6508 18.3937 20.6344 16.4688 20.2898 14.5781H24.9C25.1953 15.4891 25.3594 16.4859 25.3594 17.5ZM24.3422 13.2031H19.9781C19.5023 11.4844 18.7477 9.81719 17.6977 8.30469C20.6016 8.71719 23.0461 10.5906 24.3422 13.2031ZM18.6164 13.2031H14.1539C14.6297 11.6219 15.368 10.1266 16.3852 8.75156C17.4023 10.1266 18.1406 11.6219 18.6164 13.2031ZM15.0398 8.35625C14.0062 9.85156 13.2516 11.4844 12.7922 13.2031H8.65781C9.92109 10.6766 12.2508 8.8375 15.0398 8.35625ZM12.4805 14.5781C12.1359 16.4859 12.1359 18.4281 12.4641 20.3359L8.08359 20.3703C7.78828 19.4594 7.64062 18.4969 7.64062 17.5C7.64062 16.4859 7.80469 15.4891 8.1 14.5781H12.4805Z" fill="url(#paint1_linear_640_78)"/>
</g>
<defs>
<linearGradient id="paint0_linear_640_78" x1="88.1207" y1="-35.9633" x2="11.1513" y2="24.472" gradientUnits="userSpaceOnUse">
<stop offset="0.265" stop-color="#141414"/>
<stop offset="1" stop-color="#6F6F6F"/>
</linearGradient>
<linearGradient id="paint1_linear_640_78" x1="59.0548" y1="-16.0128" x2="11.3853" y2="19.7152" gradientUnits="userSpaceOnUse">
<stop offset="0.265" stop-color="#141414"/>
<stop offset="1" stop-color="#6F6F6F"/>
</linearGradient>
<clipPath id="clip0_640_78">
<rect width="21" height="22" fill="white" transform="translate(6 6.5)"/>
</clipPath>
</defs>
</svg>
