<svg width="34" height="35" viewBox="0 0 34 35" fill="none" xmlns="http://www.w3.org/2000/svg">
<rect x="0.5" y="1.23706" width="33" height="33" rx="6.5" stroke="url(#paint0_linear_640_197)"/>
<g clip-path="url(#clip0_640_197)">
<path d="M17.6091 19.6312H15.9595C15.8635 19.6316 15.7717 19.5975 15.7071 19.5373C15.6425 19.4772 15.6111 19.3966 15.6207 19.3157L15.7664 17.9107C15.7806 17.7613 15.9282 17.6464 16.1051 17.6469H17.7548C17.8508 17.6465 17.9425 17.6806 18.0071 17.7407C18.0717 17.8009 18.1031 17.8814 18.0935 17.9623L17.9479 19.3674C17.9337 19.5167 17.7861 19.6317 17.6091 19.6312ZM17.8735 16.8802H16.1932C16.0076 16.8802 15.8571 16.7433 15.8571 16.5745L16.3142 11.8276C16.3347 11.6733 16.4793 11.5575 16.6503 11.5586H18.3306C18.5162 11.5586 18.6667 11.6955 18.6667 11.8643L18.1962 16.6143C18.1748 16.7629 18.0382 16.8755 17.8735 16.8802ZM27.7537 11.3447C27.9325 11.5408 28.0199 11.7961 27.9962 12.0533L27.3394 19.1054C27.3183 19.3361 27.2094 19.5519 27.0325 19.7133L21.6617 24.6106C21.4699 24.7847 21.2134 24.8819 20.9466 24.8813H15.2289L10.1957 29.2371L10.5855 24.8785H8.02587C7.73839 24.8787 7.46403 24.7656 7.2697 24.5667C7.07536 24.3679 6.97891 24.1016 7.00387 23.8328L8.56602 7.10129C8.61962 6.60958 9.06143 6.23598 9.58801 6.23706H22.6223C22.9221 6.23698 23.207 6.36015 23.4018 6.57411L27.7537 11.3447ZM23.7732 17.7601L24.1906 13.4073C24.2067 13.1492 24.1116 12.8959 23.9266 12.7044L21.4714 10.0425C21.2768 9.83225 20.9947 9.71141 20.698 9.71126H12.964C12.4374 9.71017 11.9956 10.0838 11.942 10.5755L11.0213 20.3701C11.0001 20.6381 11.0978 20.9024 11.2913 21.1004C11.4849 21.2984 11.757 21.4126 12.0433 21.4158H19.6484C19.9122 21.4164 20.1661 21.3215 20.3573 21.1508L23.4663 18.3708C23.6438 18.2087 23.7528 17.9918 23.7732 17.7601Z" fill="url(#paint1_linear_640_197)"/>
</g>
<defs>
<linearGradient id="paint0_linear_640_197" x1="88.1207" y1="-35.7262" x2="11.1513" y2="24.709" gradientUnits="userSpaceOnUse">
<stop offset="0.265" stop-color="#141414"/>
<stop offset="1" stop-color="#6F6F6F"/>
</linearGradient>
<linearGradient id="paint1_linear_640_197" x1="61.4275" y1="-18.4293" x2="10.6671" y2="17.9613" gradientUnits="userSpaceOnUse">
<stop offset="0.265" stop-color="#141414"/>
<stop offset="1" stop-color="#6F6F6F"/>
</linearGradient>
<clipPath id="clip0_640_197">
<rect width="21" height="23" fill="white" transform="translate(7 6.23706)"/>
</clipPath>
</defs>
</svg>
