<svg width="34" height="35" viewBox="0 0 34 35" fill="none" xmlns="http://www.w3.org/2000/svg">
<rect x="0.5" y="1.23706" width="33" height="33" rx="6.5" stroke="url(#paint0_linear_640_142)"/>
<path d="M29.2882 17.6646C29.2882 19.348 29.2544 21.0362 29.2979 22.7196C29.3704 25.6994 27.4984 28.002 25.1136 29.0275C24.1558 29.4387 23.1496 29.6563 22.1096 29.6563C18.8541 29.6612 15.5938 29.7047 12.3382 29.6418C9.88571 29.5935 7.86855 28.5679 6.42219 26.5459C5.66273 25.4817 5.29993 24.2724 5.29993 22.9615C5.29993 19.4931 5.29993 16.0296 5.29993 12.5612C5.29993 9.73141 6.67856 7.75295 9.12625 6.46622C10.1905 5.90993 11.3466 5.6729 12.5511 5.66806C15.7098 5.66806 18.8735 5.64871 22.0322 5.67774C24.4847 5.69709 26.5309 6.63553 28.0402 8.60915C28.8819 9.71206 29.2882 10.9794 29.2882 12.3726C29.2882 14.1334 29.2882 15.899 29.2882 17.6646ZM7.0849 17.6646C7.0849 19.4399 7.0849 21.2104 7.0849 22.9857C7.0849 23.779 7.26872 24.5239 7.67989 25.1963C8.75861 26.962 10.3888 27.823 12.4108 27.8569C15.6566 27.9052 18.9073 27.8762 22.158 27.8665C22.9562 27.8665 23.7301 27.7021 24.4509 27.3586C26.4148 26.4202 27.5129 24.9254 27.5032 22.6809C27.4839 19.2464 27.4984 15.8119 27.4984 12.3774C27.4984 11.4051 27.2227 10.5151 26.647 9.73141C25.5344 8.22701 23.9962 7.48689 22.158 7.46755C18.917 7.42885 15.676 7.45303 12.435 7.45787C11.7432 7.45787 11.0757 7.59815 10.4275 7.84002C8.64735 8.50273 6.99299 10.1813 7.07039 12.6532C7.12843 14.3269 7.0849 15.9957 7.0849 17.6646Z" fill="url(#paint1_linear_640_142)"/>
<path d="M17.3206 22.7922C14.2006 22.7922 11.6851 20.3058 11.6803 17.21C11.6755 14.1624 14.2102 11.6664 17.3109 11.6664C20.4213 11.6616 22.9464 14.1528 22.9513 17.2245C22.9513 20.2913 20.431 22.7874 17.3206 22.7922ZM17.3206 21.0024C19.4442 21.0024 21.1663 19.3045 21.1615 17.2148C21.1566 15.1444 19.4345 13.4514 17.3206 13.4514C15.197 13.4514 13.4653 15.1396 13.4653 17.2245C13.4701 19.3142 15.197 21.0073 17.3206 21.0024Z" fill="url(#paint2_linear_640_142)"/>
<path d="M23.6044 9.97327C24.2575 9.97327 24.7896 10.5296 24.7896 11.2116C24.7847 11.8937 24.2478 12.4451 23.5947 12.4403C22.9514 12.4355 22.4241 11.884 22.4241 11.2165C22.4193 10.5344 22.9514 9.97327 23.6044 9.97327Z" fill="url(#paint3_linear_640_142)"/>
<defs>
<linearGradient id="paint0_linear_640_142" x1="88.1207" y1="-35.7262" x2="11.1513" y2="24.709" gradientUnits="userSpaceOnUse">
<stop offset="0.265" stop-color="#141414"/>
<stop offset="1" stop-color="#6F6F6F"/>
</linearGradient>
<linearGradient id="paint1_linear_640_142" x1="67.5028" y1="-20.0918" x2="13.1477" y2="22.5625" gradientUnits="userSpaceOnUse">
<stop offset="0.265" stop-color="#141414"/>
<stop offset="1" stop-color="#6F6F6F"/>
</linearGradient>
<linearGradient id="paint2_linear_640_142" x1="40.8922" y1="-0.265526" x2="15.6299" y2="19.8288" gradientUnits="userSpaceOnUse">
<stop offset="0.265" stop-color="#141414"/>
<stop offset="1" stop-color="#6F6F6F"/>
</linearGradient>
<linearGradient id="paint3_linear_640_142" x1="28.5549" y1="7.32746" x2="23.0299" y2="11.4869" gradientUnits="userSpaceOnUse">
<stop offset="0.265" stop-color="#141414"/>
<stop offset="1" stop-color="#6F6F6F"/>
</linearGradient>
</defs>
</svg>
