<svg width="34" height="35" viewBox="0 0 34 35" fill="none" xmlns="http://www.w3.org/2000/svg">
<rect x="0.5" y="1.23706" width="33" height="33" rx="6.5" stroke="url(#paint0_linear_640_210)"/>
<g clip-path="url(#clip0_640_210)">
<path fill-rule="evenodd" clip-rule="evenodd" d="M6.67297 14.7772C6.06165 14.7128 5.44538 14.8393 4.90888 15.1394C4.37238 15.4394 3.94199 15.8983 3.67685 16.4529C3.41172 17.0075 3.32487 17.6306 3.42823 18.2365C3.5316 18.8425 3.8201 19.4016 4.25409 19.8369C4.68809 20.2722 5.24626 20.5625 5.85189 20.6677C6.45753 20.7729 7.08089 20.688 7.6363 20.4246C8.19171 20.1612 8.6519 19.7322 8.95362 19.1966C9.25534 18.6611 9.38377 18.0452 9.32127 17.4337C9.25248 16.7539 8.95158 16.1186 8.46922 15.6348C7.98686 15.1509 7.3525 14.8481 6.67297 14.7772ZM6.57656 19.3108C6.24777 19.3549 5.91342 19.2949 5.62051 19.1392C5.3276 18.9834 5.09084 18.7398 4.94352 18.4426C4.7962 18.1454 4.74572 17.8095 4.79917 17.4821C4.85262 17.1547 5.00732 16.8522 5.24153 16.6173C5.47573 16.3824 5.77767 16.2267 6.1049 16.1722C6.43213 16.1178 6.76821 16.1672 7.0659 16.3136C7.36358 16.46 7.60792 16.696 7.76456 16.9884C7.9212 17.2808 7.98227 17.615 7.93919 17.9439C7.89398 18.2899 7.73598 18.6113 7.48965 18.8584C7.24331 19.1055 6.92239 19.2645 6.57656 19.3108ZM10.9127 14.8949C10.8095 14.8951 10.7076 14.9184 10.6146 14.9629C10.5215 15.0075 10.4395 15.0723 10.3746 15.1525C10.3097 15.2327 10.2635 15.3264 10.2394 15.4268C10.2152 15.5271 10.2138 15.6315 10.2351 15.7325C10.3004 16.0596 10.6059 16.2831 10.9388 16.2831H12.8703L9.86436 20.2611C9.84213 20.2905 9.82852 20.3255 9.82505 20.3622C9.82159 20.3988 9.8284 20.4357 9.84474 20.4688C9.86107 20.5018 9.88628 20.5296 9.91753 20.5491C9.94879 20.5686 9.98485 20.579 10.0217 20.5791H14.7369C15.0695 20.5791 15.3752 20.3556 15.4405 20.0285C15.4619 19.9275 15.4604 19.8231 15.4363 19.7228C15.4122 19.6224 15.366 19.5287 15.3011 19.4485C15.2362 19.3683 15.1543 19.3035 15.0613 19.2589C14.9682 19.2143 14.8664 19.191 14.7632 19.1907H12.4097L15.4134 15.2158C15.4358 15.1862 15.4496 15.1509 15.4531 15.1138C15.4566 15.0768 15.4497 15.0395 15.4332 15.0062C15.4167 14.9729 15.3912 14.9448 15.3596 14.9251C15.3281 14.9055 15.2916 14.895 15.2544 14.8949H10.9127ZM29.7542 14.9109C29.5981 14.948 29.4593 15.0373 29.3609 15.164C29.2624 15.2907 29.2101 15.4472 29.2126 15.6076V17.919L25.4673 14.9385C25.4379 14.9152 25.4026 14.9007 25.3653 14.8966C25.328 14.8925 25.2903 14.899 25.2566 14.9153C25.2228 14.9317 25.1944 14.9572 25.1745 14.989C25.1547 15.0208 25.1442 15.0576 25.1443 15.0951V19.8676C25.1417 20.0281 25.194 20.1846 25.2925 20.3112C25.391 20.4379 25.5297 20.5272 25.6859 20.5643C25.7872 20.5866 25.8923 20.5859 25.9934 20.5622C26.0944 20.5384 26.1888 20.4923 26.2697 20.4272C26.3505 20.3622 26.4157 20.2798 26.4605 20.1861C26.5052 20.0925 26.5284 19.99 26.5283 19.8862V17.5548L30.2736 20.5353C30.303 20.5586 30.3384 20.5731 30.3756 20.5772C30.4129 20.5813 30.4505 20.5748 30.4843 20.5585C30.518 20.5421 30.5464 20.5166 30.5663 20.4848C30.5862 20.453 30.5966 20.4163 30.5965 20.3788V15.5888C30.5967 15.4851 30.5735 15.3826 30.5287 15.289C30.4839 15.1954 30.4187 15.113 30.3379 15.0479C30.2571 14.9829 30.1627 14.9368 30.0616 14.9131C29.9606 14.8894 29.8555 14.8886 29.7542 14.9109ZM20.0024 16.1503C21.5865 16.1503 22.7702 16.9874 22.7702 17.7363C22.7702 18.4851 21.5865 19.3223 20.0024 19.3223C18.4182 19.3223 17.2345 18.4851 17.2345 17.7363C17.2345 16.9874 18.4182 16.1503 20.0024 16.1503ZM20.0024 14.7621C17.7093 14.7621 15.8505 16.0937 15.8505 17.7363C15.8505 19.3789 17.7093 20.7105 20.0024 20.7105C22.2954 20.7105 24.1542 19.3789 24.1542 17.7363C24.1542 16.0937 22.2953 14.7621 20.0024 14.7621Z" fill="url(#paint1_linear_640_210)"/>
</g>
<defs>
<linearGradient id="paint0_linear_640_210" x1="88.1207" y1="-35.7262" x2="11.1513" y2="24.709" gradientUnits="userSpaceOnUse">
<stop offset="0.265" stop-color="#141414"/>
<stop offset="1" stop-color="#6F6F6F"/>
</linearGradient>
<linearGradient id="paint1_linear_640_210" x1="73.9101" y1="8.37885" x2="66.7414" y2="34.1169" gradientUnits="userSpaceOnUse">
<stop offset="0.265" stop-color="#141414"/>
<stop offset="1" stop-color="#6F6F6F"/>
</linearGradient>
<clipPath id="clip0_640_210">
<rect width="27.1925" height="5.95228" fill="white" transform="translate(3.40381 14.7609)"/>
</clipPath>
</defs>
</svg>
