<svg width="34" height="35" viewBox="0 0 34 35" fill="none" xmlns="http://www.w3.org/2000/svg">
<rect x="0.5" y="1" width="33" height="33" rx="6.5" stroke="url(#paint0_linear_639_22)"/>
<path d="M25.8733 12.1439L23.1799 24.1404C22.9765 24.987 22.4467 25.1977 21.6938 24.7991L17.5896 21.9428L15.6095 23.7419C15.3902 23.949 15.2073 24.1218 14.7846 24.1218L15.0798 20.1745L22.6858 13.6835C23.0167 13.4053 22.6138 13.2506 22.172 13.5293L12.7688 19.1215L8.72071 17.9245C7.84033 17.665 7.82439 17.0931 8.90431 16.6939L24.7379 10.9325C25.471 10.673 26.1124 11.0861 25.8733 12.1439Z" fill="url(#paint1_linear_639_22)"/>
<defs>
<linearGradient id="paint0_linear_639_22" x1="88.1207" y1="-35.9633" x2="11.1513" y2="24.472" gradientUnits="userSpaceOnUse">
<stop offset="0.265" stop-color="#141414"/>
<stop offset="1" stop-color="#6F6F6F"/>
</linearGradient>
<linearGradient id="paint1_linear_639_22" x1="54.3345" y1="-4.30332" x2="21.3932" y2="28.3528" gradientUnits="userSpaceOnUse">
<stop offset="0.265" stop-color="#141414"/>
<stop offset="1" stop-color="#6F6F6F"/>
</linearGradient>
</defs>
</svg>
