<svg width="34" height="35" viewBox="0 0 34 35" fill="none" xmlns="http://www.w3.org/2000/svg">
<rect x="0.5" y="1" width="33" height="33" rx="6.5" stroke="url(#paint0_linear_640_73)"/>
<g clip-path="url(#clip0_640_73)">
<path d="M28.8728 23.0198C28.8437 22.9572 28.8166 22.9052 28.7915 22.8636C28.3751 22.1136 27.5793 21.1931 26.4047 20.1018L26.3799 20.0768L26.3675 20.0646L26.3549 20.052H26.3423C25.8093 19.5438 25.4717 19.2021 25.3303 19.0272C25.0716 18.694 25.0137 18.3566 25.1551 18.0149C25.2549 17.7566 25.6301 17.2113 26.2797 16.3781C26.6214 15.9365 26.892 15.5826 27.0918 15.316C28.5331 13.3999 29.158 12.1755 28.9663 11.6423L28.8919 11.5176C28.8418 11.4426 28.7127 11.374 28.5047 11.3114C28.2962 11.249 28.0297 11.2386 27.7047 11.2803L24.106 11.3051C24.0477 11.2845 23.9645 11.2864 23.856 11.3114C23.7477 11.3365 23.6935 11.349 23.6935 11.349L23.6309 11.3803L23.5812 11.4179C23.5395 11.4428 23.4937 11.4865 23.4436 11.549C23.3939 11.6113 23.3523 11.6844 23.319 11.7676C22.9272 12.7756 22.4817 13.7128 21.9818 14.5792C21.6735 15.0957 21.3904 15.5434 21.1319 15.9225C20.8737 16.3014 20.6571 16.5806 20.4823 16.7596C20.3073 16.9387 20.1493 17.0822 20.0074 17.1906C19.8657 17.2991 19.7575 17.3449 19.6827 17.3282C19.6076 17.3114 19.5369 17.2948 19.47 17.2781C19.3534 17.2031 19.2597 17.1011 19.189 16.972C19.118 16.8429 19.0702 16.6804 19.0452 16.4846C19.0204 16.2887 19.0057 16.1202 19.0015 15.9785C18.9976 15.837 18.9994 15.6369 19.0078 15.3786C19.0165 15.1203 19.0204 14.9455 19.0204 14.8538C19.0204 14.5372 19.0265 14.1936 19.0389 13.8229C19.0515 13.4522 19.0617 13.1585 19.0703 12.9421C19.0788 12.7255 19.0827 12.4963 19.0827 12.2547C19.0827 12.0131 19.068 11.8237 19.0389 11.6862C19.0102 11.5488 18.9661 11.4155 18.9081 11.2863C18.8496 11.1571 18.7641 11.0573 18.6519 10.9864C18.5395 10.9155 18.3997 10.8593 18.2333 10.8176C17.7917 10.7177 17.2295 10.6636 16.5462 10.6552C14.9968 10.6386 14.0013 10.7386 13.5597 10.9552C13.3848 11.0468 13.2265 11.1718 13.085 11.33C12.935 11.5133 12.914 11.6134 13.0223 11.6298C13.5222 11.7047 13.8761 11.8838 14.0844 12.1671L14.1595 12.3171C14.2179 12.4254 14.2762 12.6171 14.3345 12.892C14.3928 13.1668 14.4304 13.4709 14.4469 13.804C14.4885 14.4122 14.4885 14.9328 14.4469 15.366C14.4052 15.7992 14.3658 16.1366 14.3282 16.3782C14.2906 16.6197 14.2344 16.8155 14.1595 16.9654C14.0844 17.1154 14.0345 17.207 14.0094 17.2403C13.9845 17.2735 13.9636 17.2945 13.9471 17.3027C13.8388 17.3442 13.7262 17.3654 13.6096 17.3654C13.4929 17.3654 13.3514 17.307 13.1848 17.1903C13.0183 17.0736 12.8454 16.9133 12.6663 16.7092C12.4871 16.505 12.2851 16.2197 12.0601 15.8532C11.8353 15.4867 11.602 15.0535 11.3604 14.5537L11.1605 14.1912C11.0356 13.9581 10.8649 13.6185 10.6483 13.1729C10.4315 12.7272 10.24 12.296 10.0734 11.8794C10.0069 11.7045 9.90685 11.5713 9.77358 11.4797L9.71104 11.4421C9.66946 11.4088 9.60272 11.3735 9.51116 11.3358C9.41946 11.2982 9.32379 11.2713 9.22374 11.2547L5.79989 11.2796C5.45001 11.2796 5.21262 11.3588 5.08762 11.5171L5.0376 11.592C5.0126 11.6337 5 11.7003 5 11.792C5 11.8837 5.02499 11.9962 5.07502 12.1293C5.57484 13.304 6.11838 14.437 6.70564 15.5282C7.29291 16.6195 7.80323 17.4986 8.23631 18.1646C8.66947 18.8312 9.11099 19.4602 9.56087 20.0515C10.0108 20.643 10.3085 21.0221 10.4542 21.1886C10.6001 21.3555 10.7147 21.4802 10.798 21.5635L11.1104 21.8633C11.3104 22.0633 11.604 22.3028 11.9913 22.5818C12.3788 22.861 12.8078 23.1359 13.2784 23.4068C13.7492 23.6774 14.2969 23.8981 14.9217 24.0689C15.5465 24.2398 16.1546 24.3083 16.7461 24.2753H18.1832C18.4746 24.2501 18.6954 24.1584 18.8455 24.0003L18.8952 23.9376C18.9286 23.8879 18.9599 23.8107 18.9888 23.7067C19.0181 23.6026 19.0326 23.4879 19.0326 23.3631C19.0241 23.005 19.0513 22.6822 19.1136 22.3948C19.1759 22.1075 19.2469 21.8909 19.3263 21.745C19.4057 21.5993 19.4952 21.4763 19.5949 21.3766C19.6947 21.2767 19.7659 21.2162 19.8077 21.1953C19.8491 21.1744 19.8823 21.1601 19.9073 21.1516C20.1072 21.085 20.3425 21.1495 20.6135 21.3454C20.8843 21.5412 21.1383 21.7829 21.3758 22.0702C21.6133 22.3578 21.8985 22.6804 22.2317 23.0385C22.5651 23.3968 22.8566 23.6631 23.1064 23.8383L23.3562 23.9883C23.523 24.0883 23.7396 24.18 24.0063 24.2633C24.2724 24.3465 24.5056 24.3673 24.7058 24.3257L27.9046 24.2758C28.221 24.2758 28.4672 24.2234 28.6419 24.1195C28.8168 24.0154 28.9208 23.9007 28.9543 23.7759C28.9877 23.651 28.9895 23.5092 28.9607 23.3508C28.931 23.1928 28.9018 23.0823 28.8728 23.0198Z" fill="url(#paint1_linear_640_73)"/>
</g>
<defs>
<linearGradient id="paint0_linear_640_73" x1="88.1207" y1="-35.9633" x2="11.1513" y2="24.472" gradientUnits="userSpaceOnUse">
<stop offset="0.265" stop-color="#141414"/>
<stop offset="1" stop-color="#6F6F6F"/>
</linearGradient>
<linearGradient id="paint1_linear_640_73" x1="67.203" y1="-4.03169" x2="36.8542" y2="37.7345" gradientUnits="userSpaceOnUse">
<stop offset="0.265" stop-color="#141414"/>
<stop offset="1" stop-color="#6F6F6F"/>
</linearGradient>
<clipPath id="clip0_640_73">
<rect width="24" height="24" fill="white" transform="translate(5 5.5)"/>
</clipPath>
</defs>
</svg>
