<svg width="34" height="35" viewBox="0 0 34 35" fill="none" xmlns="http://www.w3.org/2000/svg">
<rect x="0.5" y="1.23706" width="33" height="33" rx="6.5" stroke="url(#paint0_linear_640_202)"/>
<path d="M18.551 14.5371L16.032 22.2371H14.118L12.424 17.0231L10.675 22.2371H8.772L6.242 14.5371H8.09L9.828 19.9491L11.643 14.5371H13.293L15.053 19.9931L16.846 14.5371H18.551ZM25.1998 18.2331C25.6398 18.3724 25.9845 18.6071 26.2338 18.9371C26.4831 19.2597 26.6078 19.6594 26.6078 20.1361C26.6078 20.8107 26.3438 21.3314 25.8158 21.6981C25.2951 22.0574 24.5325 22.2371 23.5278 22.2371H19.5458V14.5371H23.3078C24.2465 14.5371 24.9651 14.7167 25.4638 15.0761C25.9698 15.4354 26.2228 15.9231 26.2228 16.5391C26.2228 16.9131 26.1311 17.2467 25.9478 17.5401C25.7718 17.8334 25.5225 18.0644 25.1998 18.2331ZM21.3168 15.8791V17.6941H23.0878C23.5278 17.6941 23.8615 17.6171 24.0888 17.4631C24.3161 17.3091 24.4298 17.0817 24.4298 16.7811C24.4298 16.4804 24.3161 16.2567 24.0888 16.1101C23.8615 15.9561 23.5278 15.8791 23.0878 15.8791H21.3168ZM23.3958 20.8951C23.8651 20.8951 24.2171 20.8181 24.4518 20.6641C24.6938 20.5101 24.8148 20.2717 24.8148 19.9491C24.8148 19.3111 24.3418 18.9921 23.3958 18.9921H21.3168V20.8951H23.3958Z" fill="url(#paint1_linear_640_202)"/>
<defs>
<linearGradient id="paint0_linear_640_202" x1="88.1207" y1="-35.7262" x2="11.1513" y2="24.709" gradientUnits="userSpaceOnUse">
<stop offset="0.265" stop-color="#141414"/>
<stop offset="1" stop-color="#6F6F6F"/>
</linearGradient>
<linearGradient id="paint1_linear_640_202" x1="63.0193" y1="-1.70478" x2="33.909" y2="36.9762" gradientUnits="userSpaceOnUse">
<stop offset="0.265" stop-color="#141414"/>
<stop offset="1" stop-color="#6F6F6F"/>
</linearGradient>
</defs>
</svg>
