<svg width="81" height="425" viewBox="0 0 81 425" fill="none" xmlns="http://www.w3.org/2000/svg">
<path d="M78.78 424.1H2.22C1.78 415.52 1.55999 407.747 1.55999 400.78C1.55999 392.273 3.28333 385.857 6.73 381.53C10.1033 377.13 14.76 374.93 20.7 374.93C28.2533 374.93 33.9733 377.863 37.86 383.73H38.08C39.3267 380.43 41.4533 377.79 44.46 375.81C47.4667 373.757 51.2067 372.73 55.68 372.73C63.38 372.73 69.2833 375.443 73.39 380.87C77.4233 386.223 79.44 393.263 79.44 401.99C79.44 412.183 79.22 419.553 78.78 424.1ZM47.87 399.68V406.5H62.28C62.72 404.887 62.94 402.907 62.94 400.56C62.94 393.74 60.2267 390.33 54.8 390.33C50.18 390.33 47.87 393.447 47.87 399.68ZM18.06 401C18.06 402.32 18.2067 404.153 18.5 406.5H32.47V400.67C32.47 395.243 29.9767 392.53 24.99 392.53C22.8633 392.53 21.1767 393.337 19.93 394.95C18.6833 396.563 18.06 398.58 18.06 401ZM79 307.259L79 356.209H1.99999V338.609H62.5V307.259H79ZM40.5 304.454C29.1333 304.454 19.6733 300.677 12.12 293.124C4.49333 285.497 0.679999 275.634 0.679999 263.534C0.679999 251.507 4.31 241.717 11.57 234.164C18.83 226.464 28.4733 222.614 40.5 222.614C52.0867 222.614 61.62 226.5 69.1 234.274C76.58 241.974 80.32 251.727 80.32 263.534C80.32 275.487 76.69 285.314 69.43 293.014C62.17 300.64 52.5267 304.454 40.5 304.454ZM40.5 285.754C47.0267 285.754 52.5633 283.59 57.11 279.264C61.5833 275.01 63.82 269.767 63.82 263.534C63.82 256.494 61.6567 251.03 57.33 247.144C52.8567 243.257 47.2467 241.314 40.5 241.314C33.5333 241.314 27.9233 243.44 23.67 247.694C19.3433 252.02 17.18 257.3 17.18 263.534C17.18 269.987 19.3433 275.304 23.67 279.484C27.9967 283.664 33.6067 285.754 40.5 285.754ZM51.61 160.219V176.609H35.11V143.719H69.43C72.73 147.019 75.37 151.419 77.35 156.919C79.33 162.273 80.32 167.479 80.32 172.539C80.32 185.446 76.7267 195.566 69.54 202.899C62.3533 210.159 52.6733 213.789 40.5 213.789C29.1333 213.789 19.6733 210.233 12.12 203.119C4.49333 195.933 0.679999 186.473 0.679999 174.739C0.679999 164.619 3.35666 156.223 8.70999 149.549L22.9 156.919C21.2867 158.459 19.93 160.733 18.83 163.739C17.73 166.673 17.18 169.643 17.18 172.649C17.18 179.469 19.1967 184.933 23.23 189.039C27.2633 193.073 33.02 195.089 40.5 195.089C47.6133 195.089 53.2967 193.036 57.55 188.929C61.73 184.749 63.82 179.213 63.82 172.319C63.82 170.266 63.4167 167.956 62.61 165.389C61.8033 162.969 60.9233 161.246 59.97 160.219H51.61ZM79 81.6176V128.368H1.99999V82.7176H18.5V110.768H32.03V86.0176H48.53V110.768H62.5V81.6176H79ZM52.05 47.4961H79V65.0961H1.99999C1.99999 60.9161 1.96333 56.2961 1.89 51.2361C1.81666 46.1761 1.78 42.0694 1.78 38.9161C1.78 19.9228 9.99333 10.4261 26.42 10.4261C36.98 10.4261 44.3867 14.7528 48.64 23.4061L79 0.96609V22.3061L52.05 41.0061V47.4961ZM18.28 39.7961C18.28 39.8694 18.3167 40.1994 18.39 40.7861C18.39 41.3728 18.4267 42.2894 18.5 43.5361C18.5 44.7828 18.5 46.1028 18.5 47.4961H35.55V41.1161C35.55 33.1228 32.58 29.1261 26.64 29.1261C21.0667 29.1261 18.28 32.6828 18.28 39.7961Z" fill="white" fill-opacity="0.1"/>
</svg>
