<svg width="81" height="404" viewBox="0 0 81 404" fill="none" xmlns="http://www.w3.org/2000/svg">
<path d="M79 356.35V403.1H1.99999L1.99999 357.45H18.5L18.5 385.5H32.03V360.75H48.53V385.5H62.5V356.35H79ZM79 337.959V339.829H1.99999V338.289C1.99999 334.989 1.96333 331.322 1.89 327.289C1.89 325.749 1.89 324.062 1.89 322.229C1.81666 320.322 1.78 318.855 1.78 317.829C1.70667 316.802 1.67 316.032 1.67 315.519C1.67 301.072 5.26333 290.255 12.45 283.069C19.6367 275.882 28.7667 272.289 39.84 272.289C51.2067 272.289 60.63 276.139 68.11 283.839C75.5167 291.465 79.22 302.319 79.22 316.399C79.22 319.259 79.1833 322.449 79.11 325.969C79.0367 329.489 79 333.485 79 337.959ZM18.17 315.739C18.17 318.599 18.28 320.762 18.5 322.229H62.5C62.6467 320.175 62.72 318.049 62.72 315.849C62.72 308.075 60.7033 301.989 56.67 297.589C52.6367 293.189 47.0267 290.989 39.84 290.989C33.02 290.989 27.7033 293.225 23.89 297.699C20.0767 302.172 18.17 308.185 18.17 315.739ZM79 239.273V256.873H1.99999V239.273H79ZM18.5 204.034L18.5 227.134H1.99999L1.99999 163.334H18.5V186.434H79V204.034H18.5ZM40.5 161.207C29.1333 161.207 19.6733 157.431 12.12 149.877C4.49333 142.251 0.679999 132.387 0.679999 120.287C0.679999 108.261 4.31 98.4708 11.57 90.9174C18.83 83.2174 28.4733 79.3674 40.5 79.3674C52.0867 79.3674 61.62 83.2541 69.1 91.0274C76.58 98.7274 80.32 108.481 80.32 120.287C80.32 132.241 76.69 142.067 69.43 149.767C62.17 157.394 52.5267 161.207 40.5 161.207ZM40.5 142.507C47.0267 142.507 52.5633 140.344 57.11 136.017C61.5833 131.764 63.82 126.521 63.82 120.287C63.82 113.247 61.6567 107.784 57.33 103.897C52.8567 100.011 47.2467 98.0674 40.5 98.0674C33.5333 98.0674 27.9233 100.194 23.67 104.447C19.3433 108.774 17.18 114.054 17.18 120.287C17.18 126.741 19.3433 132.057 23.67 136.237C27.9967 140.417 33.6067 142.507 40.5 142.507ZM52.05 47.4434H79V65.0434H1.99999C1.99999 60.8634 1.96333 56.2434 1.89 51.1834C1.81666 46.1234 1.78 42.0167 1.78 38.8634C1.78 19.87 9.99333 10.3734 26.42 10.3734C36.98 10.3734 44.3867 14.7 48.64 23.3534L79 0.913355L79 22.2534L52.05 40.9534V47.4434ZM18.28 39.7434C18.28 39.8167 18.3167 40.1467 18.39 40.7334C18.39 41.32 18.4267 42.2367 18.5 43.4834C18.5 44.73 18.5 46.05 18.5 47.4434H35.55V41.0634C35.55 33.07 32.58 29.0734 26.64 29.0734C21.0667 29.0734 18.28 32.63 18.28 39.7434Z" fill="white" fill-opacity="0.1"/>
</svg>
