<svg width="142" height="15" viewBox="0 0 142 15" fill="none" xmlns="http://www.w3.org/2000/svg">
<g clip-path="url(#clip0_212_1851)">
<path fill-rule="evenodd" clip-rule="evenodd" d="M11.7646 0H13.9567V6.63814H17.2593L19.3092 3.19071H21.6293L19.0717 7.49758V7.52674L21.8119 12.0293H19.3275L17.2669 8.58191H13.9567V12.0293H11.7646V0ZM0 3.19071H2.19215H7.45333H9.64548V12.0293H7.70908H7.45333H5.33424V10.0856H7.45333V5.13447H2.19215V12.0293H0V5.13447V3.19071ZM26.1232 3.19071H23.931V12.0293H26.1232H33.5765V10.0856V3.19071H31.4209H31.3844H29.2653V5.13447H31.3844V10.0856H26.1232V3.19071ZM37.5224 3.19071H45.816V5.13447V15H43.6239V5.13447H39.3459L38.107 12.0293H35.5494V10.0489H36.3167L37.5224 3.19071ZM50.0177 3.19071H47.8255V12.0293H50.0177H57.471V10.0856V3.19071H55.3154H55.2788H53.1598V5.13447H55.2788V10.0856H50.0177V3.19071ZM59.5535 0H61.7457V6.63814H65.0482L67.0982 3.19071H69.4182L66.8607 7.49758V7.52674L69.6009 12.0293H67.1165L65.0558 8.58191H61.7457V12.0293H59.5535V0ZM73.9122 3.19071H71.72V12.0293H73.9122V5.13447H79.1733V7.62836H76.9812V9.57213H79.1733V12.0293H81.3655V5.13447V3.19071H73.9122ZM85.3114 3.19071H93.605V5.13447V15H91.4129V5.13447H87.1349L85.8959 12.0293H83.3384V10.0489H84.1057L85.3114 3.19071ZM97.9893 3.19071H95.7972V12.0293H97.9893H105.077V10.0856V5.72127H102.885H101.204V7.66504H102.885V10.0856H97.9893V3.19071ZM109.863 3.19071H107.671V9.64548H108.731L107.452 12.0293H109.772L111.106 9.64548H111.946V7.70171H109.863V5.13447H115.161V12.0293H117.353V5.13447V3.19071H109.863ZM119.546 0H121.738V6.63814H126.962V3.19071H129.154V12.0293H126.962V8.58191H121.738V12.0293H119.546V0ZM131.456 3.19071H133.648H141.102V5.13447V12.0293H138.91V9.57213H136.9V7.62836H138.91V5.13447H133.648V12.0293H131.456V3.19071Z" fill="white" fill-opacity="0.2"/>
</g>
<defs>
<clipPath id="clip0_212_1851">
<rect width="141.102" height="15" fill="white"/>
</clipPath>
</defs>
</svg>
