<svg width="3862" height="409" viewBox="0 0 3862 409" fill="none" xmlns="http://www.w3.org/2000/svg">
<path fill-rule="evenodd" clip-rule="evenodd" d="M322 0H382V181H472.393L528.5 87L592 87L522 204.434V205.229L597 328H529L472.6 234H382V328H322V0ZM0 87H60H204H264V328H211H204H146V275H204V140H60V328H0V140V87ZM715 87H655V328H715H919V275V87H860H859H801V140H859V275H715V87ZM1027 87H1254V140V409H1194V140H1076.91L1043 328H973V274H994L1027 87ZM1369 87H1309V328H1369H1573V275V87H1514H1513H1455V140H1513V275H1369V87ZM1630 0H1690V181H1780.39L1836.5 87L1900 87L1830 204.434V205.229L1905 328H1837L1780.6 234H1690V328H1630V0ZM2023 87H1963V328H2023V140H2167V208H2107V261H2167V328H2227V140V87H2023ZM2335 87H2562V140V409H2502V140H2384.91L2351 328H2281V274H2302L2335 87ZM2682 87H2622V328H2682H2876V275V156H2816H2770V209H2816V275H2682V87ZM3007 87H2947V263H2976L2941 328H3004.5L3041 263H3064V210H3007V140H3152V328H3212V140V87H3007ZM3272 0H3332V181H3475V87H3535V328H3475V234H3332V328H3272V0ZM3598 87H3658H3862V140V328H3802V261H3747V208H3802V140H3658V328H3598V87Z" fill="white"/>
</svg>
