<svg width="25" height="25" viewBox="0 0 25 25" fill="none" xmlns="http://www.w3.org/2000/svg">
<g clip-path="url(#clip0_611_2248)">
<path d="M24.7042 0.410291C24.3099 0.0159057 23.6704 0.0159057 23.2761 0.410291L0.295789 23.3905C-0.0985962 23.7849 -0.0985962 24.4243 0.295789 24.8187C0.492957 25.016 0.751453 25.1145 1.0099 25.1145C1.26835 25.1145 1.52679 25.0159 1.72401 24.8187L24.7042 1.83842C25.0986 1.44408 25.0986 0.804676 24.7042 0.410291Z" fill="#727272"/>
<path d="M24.7042 22.8086L1.72391 0.402896C1.32958 0.0183707 0.690125 0.0183707 0.295789 0.402896C-0.0985962 0.787373 -0.0985962 1.41079 0.295789 1.79532L23.2761 24.2011C23.4732 24.3934 23.7317 24.4895 23.9902 24.4895C24.2486 24.4895 24.5071 24.3934 24.7042 24.2011C25.0985 23.8166 25.0985 23.1931 24.7042 22.8086Z" fill="#727272"/>
</g>
<defs>
<clipPath id="clip0_611_2248">
<rect width="25" height="24.375" fill="white" transform="translate(0 0.114258)"/>
</clipPath>
</defs>
</svg>
