<svg width="14" height="14" viewBox="0 0 14 14" fill="none" xmlns="http://www.w3.org/2000/svg">
<path d="M6.99993 13.2211C6.80062 13.2211 6.60846 13.1489 6.45871 13.0178C5.89315 12.5232 5.34788 12.0585 4.8668 11.6485L4.86434 11.6464C3.4539 10.4445 2.23593 9.40646 1.38849 8.38396C0.441177 7.24086 -6.10352e-05 6.15704 -6.10352e-05 4.97304C-6.10352e-05 3.82268 0.394393 2.7614 1.11056 1.98456C1.83528 1.19853 2.82969 0.765625 3.91094 0.765625C4.71908 0.765625 5.45917 1.02112 6.11061 1.52495C6.43938 1.77927 6.73738 2.09052 6.99993 2.45357C7.26257 2.09052 7.56047 1.77927 7.88934 1.52495C8.54079 1.02112 9.28088 0.765625 10.089 0.765625C11.1702 0.765625 12.1647 1.19853 12.8894 1.98456C13.6056 2.7614 13.9999 3.82268 13.9999 4.97304C13.9999 6.15704 13.5588 7.24086 12.6115 8.38385C11.764 9.40646 10.5462 10.4444 9.13594 11.6462C8.65401 12.0568 8.10788 12.5223 7.54103 13.018C7.39139 13.1489 7.19913 13.2211 6.99993 13.2211ZM3.91094 1.58572C3.06147 1.58572 2.28111 1.92474 1.71341 2.54041C1.13727 3.16536 0.819929 4.02925 0.819929 4.97304C0.819929 5.96884 1.19003 6.85944 2.01985 7.86069C2.82189 8.82851 4.01487 9.84514 5.39615 11.0223L5.39872 11.0244C5.88161 11.436 6.42902 11.9025 6.99875 12.4007C7.5719 11.9016 8.12016 11.4343 8.60402 11.0221C9.9852 9.84492 11.1781 8.82851 11.9801 7.86069C12.8098 6.85944 13.1799 5.96884 13.1799 4.97304C13.1799 4.02925 12.8626 3.16536 12.2864 2.54041C11.7189 1.92474 10.9384 1.58572 10.089 1.58572C9.46673 1.58572 8.8954 1.78354 8.39093 2.17361C7.94136 2.52139 7.62819 2.96103 7.44458 3.26865C7.35016 3.42683 7.18396 3.52126 6.99993 3.52126C6.81589 3.52126 6.64969 3.42683 6.55527 3.26865C6.37177 2.96103 6.0586 2.52139 5.60892 2.17361C5.10445 1.78354 4.53312 1.58572 3.91094 1.58572Z" fill="white"/>
</svg>
