<svg width="30" height="30" viewBox="0 0 30 30" fill="none" xmlns="http://www.w3.org/2000/svg">
<path fill-rule="evenodd" clip-rule="evenodd" d="M23.4372 9.844C23.4372 8.03296 21.9672 6.56299 20.1562 6.56299H9.84351C8.03247 6.56299 6.5625 8.03296 6.5625 9.844V20.1567C6.5625 21.9677 8.03247 23.4377 9.84351 23.4377H20.1562C21.9672 23.4377 23.4372 21.9677 23.4372 20.1567V9.844ZM22.5 9.844V20.1567C22.5 21.4503 21.4498 22.5005 20.1562 22.5005H9.84351C8.54991 22.5005 7.49963 21.4503 7.49963 20.1567V9.844C7.49963 8.5504 8.54991 7.50012 9.84351 7.50012H20.1562C21.4498 7.50012 22.5 8.5504 22.5 9.844Z" fill="white"/>
<path fill-rule="evenodd" clip-rule="evenodd" d="M15 10.7814C12.6716 10.7814 10.7812 12.6718 10.7812 15.0001C10.7812 17.3285 12.6716 19.2189 15 19.2189C17.3284 19.2189 19.2188 17.3285 19.2188 15.0001C19.2188 12.6718 17.3284 10.7814 15 10.7814ZM15 11.7189C16.811 11.7189 18.2813 13.1891 18.2813 15.0001C18.2813 16.8111 16.811 18.2814 15 18.2814C13.189 18.2814 11.7188 16.8111 11.7188 15.0001C11.7188 13.1891 13.189 11.7189 15 11.7189Z" fill="white"/>
<path fill-rule="evenodd" clip-rule="evenodd" d="M19.6875 8.90637C18.9114 8.90637 18.2812 9.5365 18.2812 10.3126C18.2812 11.0888 18.9114 11.7189 19.6875 11.7189C20.4636 11.7189 21.0938 11.0888 21.0938 10.3126C21.0938 9.5365 20.4636 8.90637 19.6875 8.90637ZM19.6875 9.84388C19.9462 9.84388 20.1563 10.0539 20.1563 10.3126C20.1563 10.5713 19.9462 10.7814 19.6875 10.7814C19.4288 10.7814 19.2188 10.5713 19.2188 10.3126C19.2188 10.0539 19.4288 9.84388 19.6875 9.84388Z" fill="white"/>
</svg>
