<svg width="45" height="45" viewBox="0 0 45 45" fill="none" xmlns="http://www.w3.org/2000/svg">
<rect width="45" height="45" rx="22.5" transform="matrix(0 -1 -1 0 45 45)" fill="#141414" fill-opacity="0.6"/>
<path d="M17 22.5C16.7239 22.5 16.5 22.2761 16.5 22C16.5 21.7239 16.7239 21.5 17 21.5L17 22.5ZM29.3536 21.6464C29.5488 21.8417 29.5488 22.1583 29.3536 22.3536L26.1716 25.5355C25.9763 25.7308 25.6597 25.7308 25.4645 25.5355C25.2692 25.3403 25.2692 25.0237 25.4645 24.8284L28.2929 22L25.4645 19.1716C25.2692 18.9763 25.2692 18.6597 25.4645 18.4645C25.6597 18.2692 25.9763 18.2692 26.1716 18.4645L29.3536 21.6464ZM17 21.5L23 21.5L23 22.5L17 22.5L17 21.5ZM23 21.5L29 21.5L29 22.5L23 22.5L23 21.5Z" fill="white"/>
</svg>
