<svg width="45" height="45" viewBox="0 0 45 45" fill="none" xmlns="http://www.w3.org/2000/svg">
<rect y="45" width="45" height="45" rx="22.5" transform="rotate(-90 0 45)" fill="#141414" fill-opacity="0.4"/>
<path d="M28 22.5C28.2761 22.5 28.5 22.2761 28.5 22C28.5 21.7239 28.2761 21.5 28 21.5L28 22.5ZM15.6464 21.6464C15.4512 21.8417 15.4512 22.1583 15.6464 22.3536L18.8284 25.5355C19.0237 25.7308 19.3403 25.7308 19.5355 25.5355C19.7308 25.3403 19.7308 25.0237 19.5355 24.8284L16.7071 22L19.5355 19.1716C19.7308 18.9763 19.7308 18.6597 19.5355 18.4645C19.3403 18.2692 19.0237 18.2692 18.8284 18.4645L15.6464 21.6464ZM28 21.5L22 21.5L22 22.5L28 22.5L28 21.5ZM22 21.5L16 21.5L16 22.5L22 22.5L22 21.5Z" fill="white"/>
</svg>
