<svg width="15" height="15" viewBox="0 0 15 15" fill="none" xmlns="http://www.w3.org/2000/svg">
<path d="M14.7838 14.029L11.3307 10.5758H11.2935C12.3579 9.32089 12.8957 7.70299 12.7946 6.06059C12.6935 4.41818 11.9612 2.8785 10.7509 1.76361C9.54063 0.648726 7.94614 0.0450035 6.30097 0.0787335C4.6558 0.112464 3.08739 0.781033 1.92384 1.94459C0.760281 3.10814 0.0917116 4.67655 0.0579816 6.32172C0.0242515 7.96689 0.627974 9.56138 1.74286 10.7716C2.85775 11.9819 4.39743 12.7142 6.03983 12.8153C7.68224 12.9165 9.30013 12.3786 10.5551 11.3143C10.5551 11.3143 10.5551 11.3408 10.5551 11.3515L14.0082 14.8046C14.0576 14.8544 14.1164 14.8939 14.1811 14.9209C14.2458 14.9478 14.3153 14.9617 14.3854 14.9617C14.4555 14.9617 14.525 14.9478 14.5897 14.9209C14.6544 14.8939 14.7132 14.8544 14.7626 14.8046C14.817 14.7564 14.861 14.6975 14.8918 14.6316C14.9226 14.5656 14.9395 14.4941 14.9415 14.4214C14.9435 14.3487 14.9305 14.2763 14.9034 14.2088C14.8763 14.1413 14.8356 14.0801 14.7838 14.029ZM6.4379 11.7499C5.38718 11.7499 4.36006 11.4383 3.48643 10.8546C2.61279 10.2708 1.93188 9.44114 1.52979 8.4704C1.12769 7.49967 1.02249 6.4315 1.22747 5.40098C1.43246 4.37046 1.93842 3.42386 2.68139 2.68089C3.42436 1.93793 4.37095 1.43196 5.40148 1.22698C6.432 1.02199 7.50017 1.1272 8.4709 1.52929C9.44163 1.93138 10.2713 2.61229 10.8551 3.48593C11.4388 4.35957 11.7504 5.38668 11.7504 6.4374C11.7504 7.13505 11.613 7.82586 11.346 8.4704C11.079 9.11495 10.6877 9.70059 10.1944 10.1939C9.70109 10.6872 9.11544 11.0785 8.4709 11.3455C7.82636 11.6125 7.13554 11.7499 6.4379 11.7499Z" fill="white"/>
</svg>
