<svg width="30" height="30" viewBox="0 0 30 30" fill="none" xmlns="http://www.w3.org/2000/svg">
<path fill-rule="evenodd" clip-rule="evenodd" d="M17.8584 11.6252C15.6524 13.8313 13.4511 16.0325 12.6033 16.8804C12.2014 17.2822 12.201 17.9341 12.6033 18.3365L16.8502 22.5834C17.2337 22.9669 17.7908 23.1213 18.317 22.9894C18.8433 22.8583 19.262 22.4601 19.42 21.941L23.4366 8.74418C23.6044 8.19113 23.4499 7.5911 23.0367 7.18804C22.6226 6.78489 22.0182 6.64645 21.4704 6.82959C18.1197 7.94631 11.1762 10.2608 7.80619 11.3843C7.25519 11.5679 6.85345 12.0449 6.76709 12.6197C6.68109 13.194 6.92407 13.7683 7.39725 14.106L10.5371 16.3489C10.9062 16.6124 11.405 16.6038 11.7643 16.326L17.8584 11.6252ZM11.1357 15.511C10.5233 15.0741 9.12361 14.0741 7.99504 13.2681C7.83797 13.1554 7.75674 12.9643 7.7855 12.7724C7.81434 12.5814 7.94805 12.4217 8.13175 12.3608L21.7959 7.80602C21.9788 7.745 22.18 7.79112 22.318 7.92551C22.456 8.05989 22.5073 8.26041 22.4513 8.44461L18.435 21.6411C18.3822 21.814 18.2425 21.9465 18.0675 21.9907C17.892 22.0344 17.706 21.983 17.5783 21.8553L13.3314 17.6084C14.1792 16.7606 16.3805 14.5593 18.5865 12.3533C18.9705 11.9692 18.9899 11.3531 18.6316 10.9452C18.2733 10.5374 17.6594 10.4783 17.2294 10.8098L11.1357 15.511Z" fill="white"/>
</svg>
