<svg width="30" height="30" viewBox="0 0 30 30" fill="none" xmlns="http://www.w3.org/2000/svg">
<path fill-rule="evenodd" clip-rule="evenodd" d="M7.76786 7.89375C7.76786 7.6764 7.58786 7.5 7.36607 7.5H4.15179C3.93 7.5 3.75 7.6764 3.75 7.89375C3.75 7.89375 3.74879 11.7068 5.28482 15.5195C6.84375 19.3901 9.96924 23.25 16.2054 23.25C16.4271 23.25 16.6071 23.0736 16.6071 22.8563V17.3567C19.6221 17.5517 22.0341 19.9228 22.2205 22.8807C22.2337 23.0882 22.4093 23.25 22.6215 23.25H25.8482C26.07 23.25 26.25 23.0736 26.25 22.8563C26.25 19.75 24.6505 17.0063 22.2157 15.375C24.6505 13.7437 26.25 11 26.25 7.89375C26.25 7.6764 26.07 7.5 25.8482 7.5H22.6215C22.4093 7.5 22.2337 7.66183 22.2205 7.86934C22.0341 10.8272 19.6221 13.1983 16.6071 13.3933V7.89375C16.6071 7.6764 16.4271 7.5 16.2054 7.5H12.9911C12.7693 7.5 12.5893 7.6764 12.5893 7.89375V17.619C11.9416 17.4001 10.7206 16.8177 9.67513 15.3541C8.62728 13.887 7.76786 11.5611 7.76786 7.89375ZM6.9675 8.2875C7.04464 12.9176 8.48143 15.4498 9.89451 16.8346C11.4108 18.3206 12.9344 18.5211 12.9344 18.5211C13.0497 18.5372 13.1662 18.5033 13.2542 18.4285C13.3422 18.3541 13.3929 18.2454 13.3929 18.1313V8.2875H15.8036V13.8C15.8036 14.0173 15.9836 14.1938 16.2054 14.1938C19.7033 14.1938 22.5905 11.6111 22.9887 8.2875H25.4372C25.299 11.1662 23.6557 13.6622 21.2622 15.0352C21.1389 15.1057 21.0633 15.2352 21.0633 15.375C21.0633 15.5148 21.1389 15.6443 21.2622 15.7148C23.6557 17.0878 25.299 19.5838 25.4372 22.4625H22.9887C22.5905 19.1389 19.7033 16.5562 16.2054 16.5562C15.9836 16.5562 15.8036 16.7326 15.8036 16.95V22.4566C10.2533 22.294 7.45286 18.7573 6.03214 15.2305C4.84366 12.2797 4.61062 9.32897 4.56482 8.2875H6.9675Z" fill="white"/>
</svg>
