<svg width="14" height="14" viewBox="0 0 14 14" fill="none" xmlns="http://www.w3.org/2000/svg">
<g clip-path="url(#clip0_509_801)">
<path d="M13.8344 0.165886C13.6135 -0.0549697 13.2554 -0.0549697 13.0346 0.165886L0.165642 13.0348C-0.0552139 13.2557 -0.0552139 13.6137 0.165642 13.8346C0.276056 13.9451 0.420813 14.0002 0.565544 14.0002C0.710274 14.0002 0.855005 13.945 0.965446 13.8346L13.8344 0.965636C14.0552 0.744807 14.0552 0.386741 13.8344 0.165886Z" fill="white"/>
<path d="M13.8343 13.0348L0.965391 0.165886C0.744563 -0.0549697 0.38647 -0.0549697 0.165642 0.165886C-0.0552139 0.386714 -0.0552139 0.74478 0.165642 0.965636L13.0346 13.8346C13.145 13.945 13.2898 14.0002 13.4345 14.0002C13.5792 14.0002 13.724 13.945 13.8344 13.8346C14.0552 13.6137 14.0552 13.2557 13.8343 13.0348Z" fill="white"/>
</g>
<defs>
<clipPath id="clip0_509_801">
<rect width="14" height="14" fill="white"/>
</clipPath>
</defs>
</svg>
