<svg width="30" height="30" viewBox="0 0 30 30" fill="none" xmlns="http://www.w3.org/2000/svg">
<path fill-rule="evenodd" clip-rule="evenodd" d="M26.8759 9.71655C26.8759 7.66557 25.2101 6 23.1593 6H7.46655C5.41576 6 3.75 7.66557 3.75 9.71655V19.6274C3.75 21.6783 5.41576 23.3439 7.46655 23.3439H23.1593C25.2101 23.3439 26.8759 21.6783 26.8759 19.6274V9.71655ZM26.0493 9.71655V19.6274C26.0493 21.223 24.7545 22.518 23.1593 22.518H7.46655C5.87141 22.518 4.57656 21.223 4.57656 19.6274V9.71655C4.57656 8.12091 5.87141 6.8259 7.46655 6.8259H23.1593C24.7545 6.8259 26.0493 8.12091 26.0493 9.71655Z" fill="white"/>
<path fill-rule="evenodd" clip-rule="evenodd" d="M19.2145 15.0411C19.3545 14.9713 19.4429 14.8283 19.4429 14.6719C19.4429 14.5154 19.3545 14.3724 19.2145 14.3027L11.7814 10.5862C11.6534 10.5221 11.5013 10.5288 11.3796 10.6042C11.2579 10.6793 11.1836 10.8123 11.1836 10.9553V18.3884C11.1836 18.5314 11.2579 18.6645 11.3796 18.7396C11.5013 18.815 11.6534 18.8217 11.7814 18.7576L19.2145 15.0411ZM18.1066 14.6719L12.0098 17.7202V11.6236L18.1066 14.6719Z" fill="white"/>
</svg>
